<?xml version="1.0" encoding="UTF-8"?>
<svg width="512" height="512" fill="none" shape-rendering="auto" viewBox="0 0 280 280" xmlns="http://www.w3.org/2000/svg">
<mask id="a">
<rect width="280" height="280" rx="0" ry="0" fill="#fff"/>
</mask>
<g mask="url(#a)">
<g transform="translate(8)">
<path d="M132 36a56 56 0 0 0-56 56v6.17A12 12 0 0 0 66 110v14a12 12 0 0 0 10.3 11.88 56.04 56.04 0 0 0 31.7 44.73v18.4h-4a72 72 0 0 0-72 72v9h200v-9a72 72 0 0 0-72-72h-4v-18.39a56.04 56.04 0 0 0 31.7-44.73A12 12 0 0 0 198 124v-14a12 12 0 0 0-10-11.83V92a56 56 0 0 0-56-56Z" fill="#edb98a"/>
<path d="m108 180.61v8a55.79 55.79 0 0 0 24 5.39c8.59 0 16.73-1.93 24-5.39v-8a55.79 55.79 0 0 1-24 5.39 55.79 55.79 0 0 1-24-5.39z" fill="#000" fill-opacity=".1"/>
<g transform="translate(0 170)">
<path d="M132.5 51.83c18.5 0 33.5-9.62 33.5-21.48 0-.36-.01-.7-.04-1.06A72 72 0 0 1 232 101.04V110H32v-8.95a72 72 0 0 1 67.05-71.83c-.03.37-.05.75-.05 1.13 0 11.86 15 21.48 33.5 21.48Z" fill="#E6E6E6"/>
<path d="M132.5 58.76c21.89 0 39.63-12.05 39.63-26.91 0-.6-.02-1.2-.08-1.8-2-.33-4.03-.59-6.1-.76.04.35.05.7.05 1.06 0 11.86-15 21.48-33.5 21.48S99 42.2 99 30.35c0-.38.02-.76.05-1.13-2.06.14-4.08.36-6.08.67-.07.65-.1 1.3-.1 1.96 0 14.86 17.74 26.91 39.63 26.91Z" fill="#000" fill-opacity=".16"/>
<path d="M100.78 29.12 101 28c-2.96.05-6 1-6 1l-.42.66A72.01 72.01 0 0 0 32 101.06V110h74s-10.7-51.56-5.24-80.8l.02-.08ZM158 110s11-53 5-82c2.96.05 6 1 6 1l.42.66a72.01 72.01 0 0 1 62.58 71.4V110h-74Z" fill="#262e33"/>
<path d="M101 28c-6 29 5 82 5 82H90L76 74l6-9-6-6 19-30s3.04-.95 6-1ZM163 28c6 29-5 82-5 82h16l14-36-6-9 6-6-19-30s-3.04-.95-6-1Z" clip-rule="evenodd" fill="#000" fill-opacity=".15" fill-rule="evenodd"/>
<path d="m183.42 85.77.87-2.24 6.27-4.7a4 4 0 0 1 4.85.05l6.6 5.12-18.59 1.77Z" fill="#E6E6E6"/>
</g>
<g transform="translate(78 134)">
<path d="M40.06 27.72C40.7 20.7 46.7 16 54 16c7.34 0 13.36 4.75 13.95 11.85.03.38-.87.67-1.32.45-5.54-2.77-9.75-4.16-12.63-4.16-2.84 0-7 1.36-12.45 4.07-.5.25-1.53-.07-1.5-.49Z" clip-rule="evenodd" fill="#000" fill-opacity=".7" fill-rule="evenodd"/>
</g>
<g transform="translate(104 122)">
<path d="m16 8c0 4.42 5.37 8 12 8s12-3.58 12-8" clip-rule="evenodd" fill="#000" fill-opacity=".16" fill-rule="evenodd"/>
</g>
<g transform="translate(76 90)">
<path d="m36 22a6 6 0 1 1-12 0 6 6 0 0 1 12 0zm52 0a6 6 0 1 1-12 0 6 6 0 0 1 12 0z" fill="#000" fill-opacity=".6"/>
</g>
<g transform="translate(76 82)">
<path d="M15.61 15.18c4.24-5.76 6.88-5.48 13.31-.62l.67.5C34.41 18.73 36.7 20 40 20a2 2 0 1 0 0-4c-2.07 0-3.9-1.02-7.99-4.12l-.68-.52C27.57 8.53 25.37 7.3 22.63 7c-3.68-.4-7.05 1.48-10.24 5.83a2 2 0 1 0 3.22 2.36ZM96.39 15.18c-4.24-5.76-6.88-5.48-13.31-.62l-.67.5C77.58 18.73 75.29 20 72 20a2 2 0 1 1 0-4c2.07 0 3.9-1.02 7.99-4.12l.68-.52c3.76-2.83 5.96-4.07 8.7-4.37 3.68-.4 7.05 1.48 10.24 5.83a2 2 0 1 1-3.22 2.36Z" fill="#000" fill-opacity=".6"/>
</g>
<g transform="translate(-1)">
<path d="M50 90.5c0 4.55 1.7 8.64 4.85 10.77.9.61 2.47.93 4.15 1.07V182a8 8 0 0 0 8 8h42v-9.39a56.03 56.03 0 0 1-31.8-45.74A12 12 0 0 1 67 123v-13c0-3.5 1.5-6.63 3.87-8.83 11.54-2.61 24.1-7.53 36.47-14.67 12.13-7 22.5-15.24 30.48-23.75a87.36 87.36 0 0 1-12.45 20.78c12.68-5.52 21.3-14.4 25.9-26.63.37.92.76 1.84 1.17 2.76 10.26 23.03 27.88 39.36 45.77 44.74.5 2.11.79 4.08.79 5.6v13a12 12 0 0 1-10.2 11.87A56.03 56.03 0 0 1 157 180.6V190h18a32 32 0 0 0 32-32v-54.12c0-.07 0-.17-.03-.28-.07-5.64-.28-18.87-.6-21.37A74.01 74.01 0 0 0 132.99 18c-36.08 0-66.14 25.83-73 60-5.52 0-10 5.6-10 12.5Z" fill="#a55728"/>
<path d="M152.44 59.66c11.94 26.81 33.86 44.53 54.56 46.5V92A74 74 0 0 0 60.32 78H60c-5.52 0-10 5.6-10 12.5 0 6.48 3.95 11.81 9 12.44v.15l.95-.1H60a8.1 8.1 0 0 0 1.9-.22C75.7 101 91.68 95.54 107.34 86.5c12.13-7 22.5-15.24 30.48-23.75a87.36 87.36 0 0 1-12.45 20.78c12.68-5.52 21.3-14.4 25.9-26.63.37.92.76 1.84 1.17 2.76Z" fill="#fff" fill-opacity=".08"/>
</g>
</g>
</g>
</svg>