<?xml version="1.0" encoding="UTF-8"?>
<svg width="512" height="512" fill="none" shape-rendering="auto" viewBox="0 0 280 280" xmlns="http://www.w3.org/2000/svg">
<mask id="a">
<rect width="280" height="280" rx="0" ry="0" fill="#fff"/>
</mask>
<g mask="url(#a)">
<g transform="translate(8)">
<path d="M132 36a56 56 0 0 0-56 56v6.17A12 12 0 0 0 66 110v14a12 12 0 0 0 10.3 11.88 56.04 56.04 0 0 0 31.7 44.73v18.4h-4a72 72 0 0 0-72 72v9h200v-9a72 72 0 0 0-72-72h-4v-18.39a56.04 56.04 0 0 0 31.7-44.73A12 12 0 0 0 198 124v-14a12 12 0 0 0-10-11.83V92a56 56 0 0 0-56-56Z" fill="#ae5d29"/>
<path d="m108 180.61v8a55.79 55.79 0 0 0 24 5.39c8.59 0 16.73-1.93 24-5.39v-8a55.79 55.79 0 0 1-24 5.39 55.79 55.79 0 0 1-24-5.39z" fill="#000" fill-opacity=".1"/>
<g transform="translate(0 170)">
<path d="M196 38.63V110H68V38.63a71.52 71.52 0 0 1 26-8.94v44.3h76V29.69a71.52 71.52 0 0 1 26 8.94Z" fill="#3c4f5c"/>
<path d="m86 83a5 5 0 1 1-10 0 5 5 0 0 1 10 0zm102 0a5 5 0 1 1-10 0 5 5 0 0 1 10 0z" fill="#F4F4F4"/>
</g>
<g transform="translate(78 134)">
<path d="M29 15.6C30.41 25.24 41.06 33 54 33c12.97 0 23.65-7.82 25-18.26.1-.4-.22-1.74-2.17-1.74H31.17c-1.79 0-2.3 1.24-2.17 2.6Z" clip-rule="evenodd" fill="#000" fill-opacity=".7" fill-rule="evenodd"/>
<path d="M70 13H39a5 5 0 0 0 5 5h21a5 5 0 0 0 5-5Z" fill="#fff"/>
<path d="M43 23.5a1.88 1.88 0 0 0 0 .13v8.87a11.5 11.5 0 1 0 23 0v-8.87a1.62 1.62 0 0 0 0-.13c0-1.93-2.91-3.5-6.5-3.5-2.01 0-3.8.5-5 1.26a9.45 9.45 0 0 0-5-1.26c-3.59 0-6.5 1.57-6.5 3.5Z" fill="#FF4F6D"/>
</g>
<g transform="translate(104 122)">
<path d="m16 8c0 4.42 5.37 8 12 8s12-3.58 12-8" clip-rule="evenodd" fill="#000" fill-opacity=".16" fill-rule="evenodd"/>
</g>
<g transform="translate(76 90)">
<path d="m44 20.73c0 4.26-6.27 7.72-14 7.72s-14-3.45-14-7.72 6.27-7.73 14-7.73 14 3.46 14 7.73zm52 0c0 4.26-6.27 7.72-14 7.72s-14-3.45-14-7.72 6.27-7.73 14-7.73 14 3.46 14 7.73z" fill="#fff"/>
<path d="m32.82 28.3a25.15 25.15 0 0 1-5.64 0 6 6 0 1 1 5.64 0zm52 0a25.15 25.15 0 0 1-5.64 0 6 6 0 1 1 5.64 0z" fill="#000" fill-opacity=".7"/>
</g>
<g transform="translate(76 82)">
<path d="M38.03 5.6c-1.48 8.38-14.1 14.17-23.24 10.42a2.04 2.04 0 0 0-2.64 1c-.43.97.04 2.1 1.05 2.5 11.45 4.7 26.84-2.37 28.76-13.3a1.92 1.92 0 0 0-1.64-2.2 2 2 0 0 0-2.3 1.57ZM73.97 5.6c1.48 8.38 14.1 14.17 23.24 10.42 1.02-.41 2.2.03 2.63 1 .43.97-.04 2.1-1.05 2.5-11.44 4.7-26.84-2.37-28.76-13.3a1.92 1.92 0 0 1 1.64-2.2 2 2 0 0 1 2.3 1.57Z" fill="#000" fill-opacity=".6"/>
</g>
<g transform="translate(-1)">
<path d="M190.47 97.5c1-2.4 1.53-4.92 1.53-7.5 0-18.23-26.41-33-59-33-32.58 0-59 14.77-59 33 0 2.58.53 5.1 1.53 7.5C81.6 82.89 105.03 72 133 72s51.4 10.89 57.47 25.5Z" fill="#EDECE3"/>
<path d="M49 94.32C48.93 133.5 78 141 78 141c-5.44-49.55 23.54-65.15 46.53-77.53 2.94-1.58 5.78-3.11 8.44-4.65a309.5 309.5 0 0 0 8.48 4.68C164.43 75.87 193.42 91.48 188 141c0 0 29.07-8.46 29-46.68C216.92 47.15 164.85 3 135 3c-.67 0-1.34.03-2 .09-.67-.06-1.33-.09-2-.09-29.93 0-81.92 44.15-82 91.32Z" fill="#ff488e"/>
<path d="M49.01 95.9c.7 37.8 29 45.1 29 45.1s-29.07-7.07-29-43.97l.01-1.13ZM77.33 129.68c.15-37.86 26.18-51.05 47.2-61.71 11-5.58 20.64-10.47 24.47-17.83 4.13-7.25 5.39-13.94 4.65-19.67-.5 4.37-1.98 9.1-4.65 14.07-3.83 7.82-13.47 13-24.47 18.93-21.14 11.38-47.35 25.49-47.2 66.21Z" fill="#000" fill-opacity=".16"/>
</g>
</g>
</g>
</svg>
