<?xml version="1.0" encoding="UTF-8"?>
<svg width="512" height="512" fill="none" shape-rendering="auto" viewBox="0 0 280 280" xmlns="http://www.w3.org/2000/svg">
<mask id="a">
<rect width="280" height="280" rx="0" ry="0" fill="#fff"/>
</mask>
<g mask="url(#a)">
<g transform="translate(8)">
<path d="M132 36a56 56 0 0 0-56 56v6.17A12 12 0 0 0 66 110v14a12 12 0 0 0 10.3 11.88 56.04 56.04 0 0 0 31.7 44.73v18.4h-4a72 72 0 0 0-72 72v9h200v-9a72 72 0 0 0-72-72h-4v-18.39a56.04 56.04 0 0 0 31.7-44.73A12 12 0 0 0 198 124v-14a12 12 0 0 0-10-11.83V92a56 56 0 0 0-56-56Z" fill="#ffdbb4"/>
<path d="m108 180.61v8a55.79 55.79 0 0 0 24 5.39c8.59 0 16.73-1.93 24-5.39v-8a55.79 55.79 0 0 1-24 5.39 55.79 55.79 0 0 1-24-5.39z" fill="#000" fill-opacity=".1"/>
<g transform="translate(0 170)">
<path d="M132 57.05c14.91 0 27-11.2 27-25 0-1.01-.06-2.01-.2-3h1.2a72 72 0 0 1 72 72V110H32v-8.95a72 72 0 0 1 72-72h1.2c-.14.99-.2 1.99-.2 3 0 13.8 12.09 25 27 25Z" fill="#E6E6E6"/>
<path d="M100.78 29.12 101 28c-2.96.05-6 1-6 1l-.42.66A72.01 72.01 0 0 0 32 101.06V110h74s-10.7-51.56-5.24-80.8l.02-.08ZM158 110s11-53 5-82c2.96.05 6 1 6 1l.42.66a72.01 72.01 0 0 1 62.58 71.4V110h-74Z" fill="#25557c"/>
<path d="M101 28c-6 29 5 82 5 82H90L76 74l6-9-6-6 19-30s3.04-.95 6-1ZM163 28c6 29-5 82-5 82h16l14-36-6-9 6-6-19-30s-3.04-.95-6-1Z" clip-rule="evenodd" fill="#000" fill-opacity=".15" fill-rule="evenodd"/>
<path d="M108 21.54c-6.77 4.6-11 11.12-11 18.35 0 7.4 4.43 14.05 11.48 18.67l5.94-4.68 4.58.33-1-3.15.08-.06c-6.1-3.15-10.08-8.3-10.08-14.12V21.54ZM156 36.88c0 5.82-3.98 10.97-10.08 14.12l.08.06-1 3.15 4.58-.33 5.94 4.68C162.57 53.94 167 47.29 167 39.89c0-7.23-4.23-13.75-11-18.35v15.34Z" fill="#F2F2F2"/>
<path d="m183.42 85.77.87-2.24 6.27-4.7a4 4 0 0 1 4.85.05l6.6 5.12-18.59 1.77Z" fill="#E6E6E6"/>
</g>
<g transform="translate(78 134)">
<rect x="22" y="7" width="64" height="26" rx="13" fill="#000" fill-opacity=".6"/>
<rect x="24" y="9" width="60" height="22" rx="11" fill="#fff"/>
<path d="M24.18 18H32V9.41A11 11 0 0 1 35 9h1v9h9V9h4v9h9V9h4v9h9V9h2c.68 0 1.35.06 2 .18V18h8.82l.05.28v3.44l-.05.28H75v8.82c-.65.12-1.32.18-2 .18h-2v-9h-9v9h-4v-9h-9v9h-4v-9h-9v9h-1a11 11 0 0 1-3-.41V22h-7.82a11.06 11.06 0 0 1 0-4Z" fill="#E6E6E6"/>
</g>
<g transform="translate(104 122)">
<path d="m16 8c0 4.42 5.37 8 12 8s12-3.58 12-8" clip-rule="evenodd" fill="#000" fill-opacity=".16" fill-rule="evenodd"/>
</g>
<g transform="translate(76 90)">
<g fill="#000" fill-opacity=".6">
<path d="m36 22a6 6 0 1 1-12 0 6 6 0 0 1 12 0z"/>
<path d="M70.6 24.96c1.59-3.92 5.55-6.86 10.37-7.2 4.8-.33 9.12 2 11.24 5.64.63 1.09-.1 2.06-.93 1.43-2.6-1.93-6.15-3-10-2.73A15.13 15.13 0 0 0 71.95 26c-.84.78-1.81.1-1.35-1.04Z" clip-rule="evenodd" fill-rule="evenodd"/>
</g>
</g>
<g transform="translate(76 82)">
<path d="M15.6 14.16c4.49-6.32 14-9.5 23.75-6.36a2 2 0 1 0 1.23-3.81c-11.41-3.68-22.74.1-28.25 7.85a2 2 0 1 0 3.26 2.32ZM96.38 21.16c-3.92-5.51-14.65-8.6-23.9-6.33a2 2 0 0 1-.95-3.88c10.74-2.64 23.17.94 28.1 7.9a2 2 0 1 1-3.25 2.3Z" fill="#000" fill-opacity=".6"/>
</g>
<g transform="translate(-1)">
<circle cx="133" cy="20" r="20" fill="#F4F4F4"/>
<path d="M67 78a66 66 0 1 1 132 0v5H67v-5Z" clip-rule="evenodd" fill="#ffafb9" fill-rule="evenodd"/>
<path d="m64 69.77a7.05 7.05 0 0 1 3.05-5.96c7.8-5.18 30.42-17.8 66.02-17.8s58.14 12.62 65.9 17.81a7.04 7.04 0 0 1 3.03 5.95v30.2c0 3.3-3.9 5.38-6.78 3.75-10.38-5.89-32.12-15.72-61.42-15.72a133.57 133.57 0 0 0-63.17 15.98c-2.85 1.56-6.63-0.5-6.63-3.75v-30.46z" clip-rule="evenodd" fill="#000" fill-opacity=".1" fill-rule="evenodd"/>
<path d="m64 67.77a7.05 7.05 0 0 1 3.05-5.96c7.8-5.18 30.42-17.8 66.02-17.8s58.14 12.62 65.9 17.81a7.04 7.04 0 0 1 3.03 5.95v30.2c0 3.3-3.9 5.38-6.78 3.75-10.38-5.89-32.12-15.72-61.42-15.72a133.57 133.57 0 0 0-63.17 15.98c-2.85 1.56-6.63-0.5-6.63-3.75v-30.46z" clip-rule="evenodd" fill="#F4F4F4" fill-rule="evenodd"/>
</g>
</g>
</g>
</svg>